<svg width="95" height="60" viewBox="0 0 95 60" fill="none" xmlns="http://www.w3.org/2000/svg">
<path d="M23.1982 25.12L25.5195 22.4083L29.0016 19.8393L32.3386 17.6985L35.3854 15.7004L36.6911 14.5586H39.7379H43.5102L46.7021 15.7004H49.4587L50.6194 16.414" stroke="black"/>
<path d="M55.117 17.1276L57.0031 18.6975L58.7441 19.8393L60.3401 21.6947L62.3713 24.4064" stroke="black"/>
<path d="M39.4477 16.842L42.3495 19.1256L44.6708 20.981L47.1373 22.4082L49.7488 23.6927L52.3604 24.8345L54.9719 25.9762L57.5835 27.2607H59.0343" stroke="black"/>
<path d="M60.4852 11.4187L63.532 12.275L66.2886 13.7022L68.3198 14.844L70.0608 17.1276L71.3666 18.6975L73.688 20.9811L74.8487 23.1219L76.1544 24.8345" stroke="black"/>
<path d="M30.8877 15.2721L32.3385 14.1303L33.9345 12.8458L35.2403 11.9895L36.8362 11.1332L37.8518 10.4196H39.3027H41.0437H43.6552" stroke="black"/>
<path d="M46.8471 11.2759C47.4274 11.1617 49.507 10.6575 50.4742 10.4196L53.2309 9.27782L56.5678 8.56421H60.195H64.8377H67.5943L70.351 9.27782L73.5429 11.2759L76.7348 12.9886L80.2168 15.1294L82.5382 17.1275L86.1653 20.2674" stroke="black"/>
<path d="M23.1982 27.5463L27.5507 29.4016L30.4524 30.1153L34.0796 30.9716H36.6911L39.7379 31.6852H44.2356H48.4431H52.6506L56.1326 30.9716H58.0188H61.2106L62.8066 29.4016" stroke="black"/>
<path d="M63.8222 31.8279L65.7083 32.6842L68.9002 33.6833L69.9158 34.6823L70.4961 35.3959" stroke="black"/>
<path d="M70.7863 31.5425H74.7036L76.8799 31.1143L78.3307 30.258L79.9267 29.6871L81.3775 28.9735L82.3931 28.1172L83.6989 27.2608L84.8596 26.2618L85.8752 24.9773L86.8908 23.9782C87.0359 23.8831 87.326 23.6357 87.326 23.4073C87.326 23.179 87.326 22.2656 87.326 21.8374" stroke="black"/>
<path d="M11.7364 17.6985L12.897 16.414L13.7676 15.1295L15.0733 14.5586L16.3791 13.7023L17.975 12.8459L20.0062 12.275L21.8924 11.4187L23.6334 10.4197L24.7941 9.70606H26.0998L28.2761 8.84972L30.3073 8.27884L32.6287 7.27979H34.805H37.4165L40.7535 7.70795C41.1404 7.70795 42.0013 7.70795 42.3495 7.70795C42.6977 7.70795 44.3323 7.70795 45.1061 7.70795L46.2668 8.84972" stroke="black"/>
<path d="M65.273 36.8231H67.3042L68.4649 36.1095" stroke="black"/>
<path d="M83.4088 15.5576L85.0047 15.9858L86.0203 16.6994L87.181 17.1276L88.0515 17.8412" stroke="black"/>
<path d="M12.8971 13.2741L14.9283 12.275L16.5242 11.1333L18.8456 9.99149L20.5866 8.70699L22.6178 7.70794L25.0843 7.13705L26.39 6.56616H28.2762L30.7426 5.56711L33.6443 4.71078L36.546 4.13989H40.7535H42.9298H44.0905" stroke="black"/>
<path d="M54.5367 5.28162H58.8893H62.0811L65.273 5.8525L68.7551 6.28067L71.3666 7.27972L74.1233 8.13605L78.1857 9.70599L82.6833 12.1323L86.4556 15.4149" stroke="black"/>
<path d="M90.0827 24.5491L87.326 27.9744L85.1497 30.2579L79.0561 34.825L77.3151 35.8241L74.4134 36.2523L70.9313 37.8222L68.1747 38.964L64.1123 39.3921L60.4852 40.2485H51.6349L48.1529 39.3921H38.7223L36.9813 38.8213H31.7582L29.727 38.1076L26.39 37.2513L24.794 36.6804H21.8923L15.0733 33.826L11.0109 31.1143L8.39935 28.9734L6.07797 27.4035L5.64272 26.4045" stroke="black"/>
<path d="M7.67398 20.6957L6.94855 22.4083L6.65837 23.4074V24.4064L6.94855 25.4055L8.10923 26.2618" stroke="black"/>
<path d="M70.351 54.0925L72.9626 52.9507L77.025 49.0972L80.3619 45.101L84.7145 38.964L89.6474 32.3988L91.2434 28.8308L94 24.4064V19.4111L92.4041 15.5576L90.5179 13.2741L85.1498 9.99147L80.3619 7.27976L75.5741 5.28165L68.9002 3.56899L61.3557 2.14177L58.454 1.57089L51.1997 1H41.7691L34.6599 1.57089L32.4836 2.14177L27.2605 2.71266L21.0218 4.2826L12.7519 8.13609L8.83463 10.8478L4.91732 14.7013L1.72543 19.8393L1 24.1209V27.2608L4.33697 33.5406L8.83463 39.8203L16.0889 47.2419L21.8924 52.3798L24.7941 54.8061L27.986 55.8052L31.1778 57.2324L34.6599 57.8033L37.9969 58.8023L40.1732 59.2305H47.7176H58.454H61.3557L68.0296 55.8052" stroke="black"/>
</svg>
