<svg width="502" height="318" viewBox="0 0 502 318" fill="none" xmlns="http://www.w3.org/2000/svg">
<g filter="url(#filter0_d)">
<path d="M122.435 128.603L134.716 114.257L153.137 100.666L170.791 89.3402L186.91 78.7696L193.817 72.7292H209.936H229.892L246.778 78.7696H261.362L267.502 82.5448" stroke="black"/>
<path d="M291.296 86.32L301.275 94.6255L310.485 100.666L318.928 110.481L329.674 124.827" stroke="black"/>
<path d="M208.401 84.8099L223.752 96.8906L236.033 106.706L249.081 114.257L262.897 121.052L276.713 127.092L290.529 133.133L304.345 139.928H312.02" stroke="black"/>
<path d="M319.696 56.1182L335.814 60.6485L350.398 68.1989L361.144 74.2393L370.354 86.32L377.262 94.6255L389.543 106.706L395.683 118.032L402.591 127.092" stroke="black"/>
<path d="M163.115 76.5044L170.791 70.4641L179.234 63.6687L186.142 59.1384L194.585 54.6082L199.958 50.8329H207.633H216.844H230.66" stroke="black"/>
<path d="M247.546 55.3632C250.616 54.7591 261.618 52.0913 266.735 50.8329L281.318 44.7926L298.972 41.0173H318.161H342.722H357.306L371.889 44.7926L388.775 55.3632L405.661 64.4237L424.083 75.7494L436.363 86.32L455.552 102.931" stroke="black"/>
<path d="M122.435 141.438L145.462 151.254L160.813 155.029L180.002 159.559H193.817L209.936 163.335H233.73H255.989H278.248L296.669 159.559H306.647H323.534L331.977 151.254" stroke="black"/>
<path d="M337.349 164.09L347.328 168.62L364.214 173.905L369.587 179.19L372.657 182.966" stroke="black"/>
<path d="M374.192 162.579H394.916L406.429 160.314L414.105 155.784L422.548 152.764L430.223 148.989L435.596 144.458L442.504 139.928L448.644 134.643L454.017 127.847L459.39 122.562C460.158 122.059 461.693 120.75 461.693 119.542C461.693 118.334 461.693 113.502 461.693 111.236" stroke="black"/>
<path d="M61.7988 89.3402L67.9392 82.5448L72.5445 75.7494L79.4524 72.7292L86.3604 68.1989L94.8034 63.6687L105.549 60.6485L115.527 56.1182L124.738 50.8329L130.878 47.0577H137.786L149.3 42.5274L160.045 39.5072L172.326 34.2219H183.839H197.655L215.309 36.4871C217.356 36.4871 221.91 36.4871 223.752 36.4871C225.594 36.4871 234.242 36.4871 238.335 36.4871L244.476 42.5274" stroke="black"/>
<path d="M345.025 190.516H355.771L361.911 186.741" stroke="black"/>
<path d="M440.969 78.0145L449.412 80.2797L454.785 84.0549L460.925 86.32L465.53 90.0952" stroke="black"/>
<path d="M67.9392 65.9338L78.6849 60.6485L87.1279 54.6081L99.4087 48.5678L108.619 41.7724L119.365 36.4871L132.413 33.4669L139.321 30.4467H149.3L162.348 25.1614L177.699 20.6312L193.05 17.611H215.309H226.822H232.963" stroke="black"/>
<path d="M288.226 23.6513H311.253H328.139L345.025 26.6715L363.446 28.9366L377.262 34.222L391.846 38.7522L413.337 47.0577L437.131 59.8935L457.087 77.2595" stroke="black"/>
<path d="M476.276 125.582L461.693 143.703L450.179 155.784L417.942 179.945L408.732 185.231L393.381 187.496L374.959 195.801L360.376 201.842L338.885 204.107L319.696 208.637H272.875L254.454 204.107H204.563L195.353 201.087H167.721L156.975 197.312L139.321 192.781L130.878 189.761H115.527L79.4524 174.66L57.961 160.314L44.1451 148.989L31.8643 140.683L29.5616 135.398" stroke="black"/>
<path d="M40.3073 105.196L36.4696 114.257L34.9345 119.542V124.827L36.4696 130.113L42.61 134.643" stroke="black"/>
<path d="M371.889 281.876L385.705 275.836L407.197 255.45L424.85 234.309L447.877 201.842L473.973 167.11L482.417 148.234L497 124.827V98.4007L488.557 78.0145L478.579 65.9338L450.179 48.5678L424.85 34.2219L399.521 23.6513L364.214 14.5908L324.301 7.04035L308.95 4.02018L270.573 1H220.682L183.072 4.02018L171.559 7.04035L143.927 10.0605L110.922 18.366L67.1716 38.7522L46.4477 53.0981L25.7239 73.4843L8.83775 100.666L5 123.317V139.928L22.6537 173.15L46.4477 206.372L84.8253 245.634L115.527 272.816L130.878 285.652L147.764 290.937L164.651 298.487L183.072 301.508L200.725 306.793L212.239 309.058H252.151H308.95H324.301L359.608 290.937" stroke="black"/>
</g>
<defs>
<filter id="filter0_d" x="0.5" y="0.5" width="501" height="317.058" filterUnits="userSpaceOnUse" color-interpolation-filters="sRGB">
<feFlood flood-opacity="0" result="BackgroundImageFix"/>
<feColorMatrix in="SourceAlpha" type="matrix" values="0 0 0 0 0 0 0 0 0 0 0 0 0 0 0 0 0 0 127 0"/>
<feOffset dy="4"/>
<feGaussianBlur stdDeviation="2"/>
<feColorMatrix type="matrix" values="0 0 0 0 0 0 0 0 0 0 0 0 0 0 0 0 0 0 0.4 0"/>
<feBlend mode="normal" in2="BackgroundImageFix" result="effect1_dropShadow"/>
<feBlend mode="normal" in="SourceGraphic" in2="effect1_dropShadow" result="shape"/>
</filter>
</defs>
</svg>
