<svg width="138" height="117" viewBox="0 0 138 117" fill="none" xmlns="http://www.w3.org/2000/svg">
<g filter="url(#filter0_d)">
<path d="M21.4486 8.40434L16.42 10.8725V13.3406L17.8568 15.1035L21.4486 17.9242L25.0404 20.0397L30.7872 21.4501L35.8158 22.5079L40.4851 23.213L44.4361 23.9182L49.1054 24.2708L53.4156 24.6234H59.5216H62.7542H72.0929H76.4031H82.1499H86.8193H89.6927L93.2845 23.9182H97.5947L101.186 23.213L104.778 22.5079L107.293 21.8027L111.243 20.7449L115.194 19.6871L118.427 18.6294L120.223 17.5716L121.66 16.8664L123.096 16.1613L124.533 15.4561L125.611 14.3983L126.688 12.988L127.766 12.2828V11.5776L126.688 10.1673L124.533 8.40434L119.145 5.93623L115.194 4.52588L111.243 3.8207L104.778 2.76294C103.581 2.52788 101.043 2.05776 100.468 2.05776C99.8934 2.05776 98.7919 1.8227 98.313 1.70518L96.5171 1H91.8478H85.0234H80.7132H74.248H68.8603H63.4726H58.8033L54.8523 1.70518H52.6972H49.4646L46.232 2.05776L40.4851 2.76294L32.5831 4.52588L26.4771 5.93623L21.4486 8.40434Z" stroke="black"/>
<path d="M14.5167 11.6537L10.992 16.1699L8.87719 18.9491L6.76236 22.7706L5 25.2024V28.329L6.76236 34.9297V37.7089V40.8355" stroke="black"/>
<path d="M7.85498 41.8616H10.0127H12.5299H15.0472L15.7664 42.9115L17.2049 43.9613L17.5645 45.711V48.5105L18.2837 52.7097V55.5092L19.3626 59.0086L20.4414 63.2079L21.1606 66.7073L22.5991 73.706L23.6779 77.5554L24.3971 80.3549V82.8044L25.476 84.9041V86.3038L26.5548 92.2528L27.9933 96.452L29.7913 97.8518L32.3086 98.9016L34.4663 100.301L38.0624 102.051L41.6585 103.101L48.4911 104.501L55.6834 106.6L58.9199 107.3L62.516 108H67.191H74.7428H78.6985H85.1716L90.5657 107.3L97.0388 106.6L100.994 105.55L107.108 103.101L111.064 100.301L114.66 97.8518L116.458 95.7522L117.896 91.9028L118.615 87.0037L119.335 82.4545L120.054 77.5554L121.133 69.5068L122.212 64.2577L122.931 60.0584L123.65 56.2091L124.369 52.7097L125.088 48.5105L125.448 45.0111L125.808 40.8118V38.7122L126.527 37.6624L127.965 36.9625L128.685 36.2626H131.202H132.281L133 35.5628V31.3635V26.8143V23.6648V20.1655V18.0658L132.281 15.9662L130.123 13.5166L128.685 12.1169" stroke="black"/>
<path d="M21.1785 59.3636L26.2223 62.113L29.4648 63.8313L33.4279 65.206L37.3909 65.8933L42.4348 67.6116L48.9197 68.6426L53.6033 69.33L58.2869 70.0173H64.0513H68.7349H77.3815H83.8665H89.6309L95.3954 69.33L98.2776 68.6426L102.961 67.6116L106.204 66.5806L109.806 65.206L114.49 63.8313L118.093 62.113L122.056 59.3636" stroke="black"/>
<path d="M59.7212 40.8355H69.7138" stroke="black"/>
<path d="M60.3572 43.1111L60.3786 46.1493L60.8639 46.1461M60.3572 43.1111L60.8639 46.1461M60.3572 43.1111L68.6071 43.056L68.6285 46.0943L60.8639 46.1461" stroke="black"/>
<path d="M61.6245 47.3204L62.5762 50.0996" stroke="black"/>
<path d="M68.762 47.3204L66.3828 50.0996" stroke="black"/>
<path d="M58.2936 51.4892H70.6653" stroke="black"/>
<path d="M75.8997 39.9091H80.1822" stroke="black"/>
<path d="M78.2788 38.0563V42.2251" stroke="black"/>
<path d="M80.658 39.9091H84.9405" stroke="black"/>
<path d="M83.0371 38.0563V42.2251" stroke="black"/>
<path d="M80.1822 43.1515C78.6595 43.9338 75.3858 45.4984 74.4722 45.4984M77.8982 44.9117V51.9524" stroke="black"/>
<path d="M81.8488 43.2412C81.3321 47.309 82.0115 54.6214 88.8635 51.328" stroke="black"/>
<path d="M81.6097 48.2468L85.4164 46.8571" stroke="black"/>
<path d="M22.8496 64.5648C23.6573 64.9219 26.2202 66.2119 27.4007 66.8122L29.9325 68.167L33.9559 69.4742L38.9737 70.7496L43.9763 71.5471L49.4914 72.8067L54.9912 73.5883L59.466 73.4456L66.4575 74.1796L70.9323 74.0369L75.9044 73.8783L82.3682 73.6721L88.3347 73.4818L94.7984 73.2757L97.7511 72.2245L101.232 72.1135L105.179 71.0306L108.162 70.9354L112.094 69.3745L115.047 68.3233L119.476 66.7465L120.922 65.2649" stroke="black"/>
</g>
<defs>
<filter id="filter0_d" x="0.5" y="0.5" width="137" height="116" filterUnits="userSpaceOnUse" color-interpolation-filters="sRGB">
<feFlood flood-opacity="0" result="BackgroundImageFix"/>
<feColorMatrix in="SourceAlpha" type="matrix" values="0 0 0 0 0 0 0 0 0 0 0 0 0 0 0 0 0 0 127 0"/>
<feOffset dy="4"/>
<feGaussianBlur stdDeviation="2"/>
<feColorMatrix type="matrix" values="0 0 0 0 0 0 0 0 0 0 0 0 0 0 0 0 0 0 0.25 0"/>
<feBlend mode="normal" in2="BackgroundImageFix" result="effect1_dropShadow"/>
<feBlend mode="normal" in="SourceGraphic" in2="effect1_dropShadow" result="shape"/>
</filter>
</defs>
</svg>
